<svg width="15" height="15" viewBox="0 0 15 15" fill="none" xmlns="http://www.w3.org/2000/svg">
<path fill-rule="evenodd" clip-rule="evenodd" d="M10.2289 4.98068V5.87513C11.2336 6.18873 11.9656 7.09825 11.9656 8.18458V11.0644C11.9656 12.4093 10.8507 13.4997 9.47608 13.4997H4.53908C3.16391 13.4997 2.04895 12.4093 2.04895 11.0644V8.18458C2.04895 7.09825 2.78159 6.18873 3.7857 5.87513V4.98068C3.79163 3.24163 5.232 1.83301 6.99839 1.83301C8.78849 1.83301 10.2289 3.24163 10.2289 4.98068ZM7.01025 2.84745C8.21352 2.84745 9.19156 3.80392 9.19156 4.98068V5.74933H4.82301V4.96908C4.82894 3.79813 5.80697 2.84745 7.01025 2.84745ZM7.52594 10.2651C7.52594 10.5491 7.29477 10.7752 7.00432 10.7752C6.7198 10.7752 6.48863 10.5491 6.48863 10.2651V8.97816C6.48863 8.69991 6.7198 8.47384 7.00432 8.47384C7.29477 8.47384 7.52594 8.69991 7.52594 8.97816V10.2651Z" fill="#B35656"/>
</svg>
