<svg width="15" height="15" viewBox="0 0 15 15" fill="none" xmlns="http://www.w3.org/2000/svg">
<path fill-rule="evenodd" clip-rule="evenodd" d="M10.9197 5.79753C10.9197 6.53016 11.1134 6.96198 11.5395 7.4596C11.8624 7.82621 11.9656 8.29681 11.9656 8.80735C11.9656 9.31731 11.7981 9.80142 11.4624 10.1945C11.0229 10.6657 10.4032 10.9665 9.77067 11.0187C8.85408 11.0969 7.93692 11.1627 7.00757 11.1627C6.07765 11.1627 5.16106 11.1233 4.24447 11.0187C3.61138 10.9665 2.99163 10.6657 2.55276 10.1945C2.21708 9.80142 2.04895 9.31731 2.04895 8.80735C2.04895 8.29681 2.15273 7.82621 2.47507 7.4596C2.91452 6.96198 3.0954 6.53016 3.0954 5.79753V5.54902C3.0954 4.56787 3.34006 3.92631 3.84386 3.29826C4.5929 2.38233 5.79357 1.83301 6.98148 1.83301H7.03366C8.24708 1.83301 9.48659 2.40877 10.2229 3.36406C10.7006 3.97919 10.9197 4.59372 10.9197 5.54902V5.79753ZM5.30026 12.3685C5.30026 12.0747 5.56984 11.9402 5.81914 11.8826C6.11075 11.8209 7.8877 11.8209 8.17931 11.8826C8.4286 11.9402 8.69819 12.0747 8.69819 12.3685C8.6837 12.6482 8.51963 12.8961 8.29294 13.0535C7.99901 13.2827 7.65406 13.4278 7.29345 13.4801C7.09401 13.5059 6.89806 13.5065 6.70558 13.4801C6.34439 13.4278 5.99944 13.2827 5.70609 13.0529C5.47882 12.8961 5.31475 12.6482 5.30026 12.3685Z" fill="#F7C345"/>
</svg>
